<mxfile host="app.diagrams.net" modified="2020-04-08T12:56:42.571Z" agent="5.0 (Windows NT 10.0; Win64; x64) AppleWebKit/537.36 (KHTML, like Gecko) Chrome/80.0.3987.149 Safari/537.36" etag="q7DnUVILuM8lV_NrPrt4" version="12.9.10" type="github">
  <diagram id="5KiuH8XkOpqRYHE2uusJ" name="Page-1">
    <mxGraphModel dx="414" dy="387" grid="1" gridSize="10" guides="1" tooltips="1" connect="1" arrows="1" fold="1" page="1" pageScale="1" pageWidth="850" pageHeight="1100" math="0" shadow="0">
      <root>
        <mxCell id="0" />
        <mxCell id="1" parent="0" />
        <mxCell id="-ruIdGfZLTY7F62S9Ap_-1" value="" style="points=[[0.015,0.015,0],[0.985,0.015,0],[0.985,0.985,0],[0.015,0.985,0],[0.25,0,0],[0.5,0,0],[0.75,0,0],[1,0.25,0],[1,0.5,0],[1,0.75,0],[0.75,1,0],[0.5,1,0],[0.25,1,0],[0,0.75,0],[0,0.5,0],[0,0.25,0]];verticalLabelPosition=bottom;html=1;verticalAlign=top;aspect=fixed;align=center;pointerEvents=1;shape=mxgraph.cisco19.rect;prIcon=l3_switch;fillColor=#FAFAFA;strokeColor=#005073;" parent="1" vertex="1">
          <mxGeometry x="310" y="160" width="60" height="60" as="geometry" />
        </mxCell>
        <mxCell id="uiAMYh9efbAVhKRE-S2l-2" value="" style="points=[[0.015,0.015,0],[0.985,0.015,0],[0.985,0.985,0],[0.015,0.985,0],[0.25,0,0],[0.5,0,0],[0.75,0,0],[1,0.25,0],[1,0.5,0],[1,0.75,0],[0.75,1,0],[0.5,1,0],[0.25,1,0],[0,0.75,0],[0,0.5,0],[0,0.25,0]];verticalLabelPosition=bottom;html=1;verticalAlign=top;aspect=fixed;align=center;pointerEvents=1;shape=mxgraph.cisco19.rect;prIcon=l2_switch;fillColor=#FAFAFA;strokeColor=#005073;" vertex="1" parent="1">
          <mxGeometry x="80" y="320" width="40" height="40" as="geometry" />
        </mxCell>
        <mxCell id="uiAMYh9efbAVhKRE-S2l-3" value="" style="points=[[0.015,0.015,0],[0.985,0.015,0],[0.985,0.985,0],[0.015,0.985,0],[0.25,0,0],[0.5,0,0],[0.75,0,0],[1,0.25,0],[1,0.5,0],[1,0.75,0],[0.75,1,0],[0.5,1,0],[0.25,1,0],[0,0.75,0],[0,0.5,0],[0,0.25,0]];verticalLabelPosition=bottom;html=1;verticalAlign=top;aspect=fixed;align=center;pointerEvents=1;shape=mxgraph.cisco19.rect;prIcon=l2_switch;fillColor=#FAFAFA;strokeColor=#005073;" vertex="1" parent="1">
          <mxGeometry x="200" y="320" width="40" height="40" as="geometry" />
        </mxCell>
        <mxCell id="uiAMYh9efbAVhKRE-S2l-4" value="" style="points=[[0.015,0.015,0],[0.985,0.015,0],[0.985,0.985,0],[0.015,0.985,0],[0.25,0,0],[0.5,0,0],[0.75,0,0],[1,0.25,0],[1,0.5,0],[1,0.75,0],[0.75,1,0],[0.5,1,0],[0.25,1,0],[0,0.75,0],[0,0.5,0],[0,0.25,0]];verticalLabelPosition=bottom;html=1;verticalAlign=top;aspect=fixed;align=center;pointerEvents=1;shape=mxgraph.cisco19.rect;prIcon=l2_switch;fillColor=#FAFAFA;strokeColor=#005073;" vertex="1" parent="1">
          <mxGeometry x="320" y="320" width="40" height="40" as="geometry" />
        </mxCell>
        <mxCell id="uiAMYh9efbAVhKRE-S2l-5" value="" style="points=[[0.015,0.015,0],[0.985,0.015,0],[0.985,0.985,0],[0.015,0.985,0],[0.25,0,0],[0.5,0,0],[0.75,0,0],[1,0.25,0],[1,0.5,0],[1,0.75,0],[0.75,1,0],[0.5,1,0],[0.25,1,0],[0,0.75,0],[0,0.5,0],[0,0.25,0]];verticalLabelPosition=bottom;html=1;verticalAlign=top;aspect=fixed;align=center;pointerEvents=1;shape=mxgraph.cisco19.rect;prIcon=l2_switch;fillColor=#FAFAFA;strokeColor=#005073;" vertex="1" parent="1">
          <mxGeometry x="440" y="320" width="40" height="40" as="geometry" />
        </mxCell>
        <mxCell id="uiAMYh9efbAVhKRE-S2l-6" value="" style="points=[[0.015,0.015,0],[0.985,0.015,0],[0.985,0.985,0],[0.015,0.985,0],[0.25,0,0],[0.5,0,0],[0.75,0,0],[1,0.25,0],[1,0.5,0],[1,0.75,0],[0.75,1,0],[0.5,1,0],[0.25,1,0],[0,0.75,0],[0,0.5,0],[0,0.25,0]];verticalLabelPosition=bottom;html=1;verticalAlign=top;aspect=fixed;align=center;pointerEvents=1;shape=mxgraph.cisco19.rect;prIcon=l2_switch;fillColor=#FAFAFA;strokeColor=#005073;" vertex="1" parent="1">
          <mxGeometry x="560" y="320" width="40" height="40" as="geometry" />
        </mxCell>
        <mxCell id="uiAMYh9efbAVhKRE-S2l-22" value="" style="group" vertex="1" connectable="0" parent="1">
          <mxGeometry x="60" y="410" width="87" height="11" as="geometry" />
        </mxCell>
        <mxCell id="uiAMYh9efbAVhKRE-S2l-7" value="" style="shape=link;html=1;" edge="1" parent="uiAMYh9efbAVhKRE-S2l-22">
          <mxGeometry width="50" height="50" relative="1" as="geometry">
            <mxPoint as="sourcePoint" />
            <mxPoint x="80" as="targetPoint" />
          </mxGeometry>
        </mxCell>
        <mxCell id="uiAMYh9efbAVhKRE-S2l-13" value="&lt;font style=&quot;font-size: 10px&quot;&gt;Hosts&lt;/font&gt;" style="text;html=1;strokeColor=none;fillColor=none;align=center;verticalAlign=middle;whiteSpace=wrap;rounded=0;" vertex="1" parent="uiAMYh9efbAVhKRE-S2l-22">
          <mxGeometry x="47" y="1" width="40" height="10" as="geometry" />
        </mxCell>
        <mxCell id="uiAMYh9efbAVhKRE-S2l-24" value="" style="group" vertex="1" connectable="0" parent="1">
          <mxGeometry x="180" y="410" width="87" height="11" as="geometry" />
        </mxCell>
        <mxCell id="uiAMYh9efbAVhKRE-S2l-25" value="" style="shape=link;html=1;" edge="1" parent="uiAMYh9efbAVhKRE-S2l-24">
          <mxGeometry width="50" height="50" relative="1" as="geometry">
            <mxPoint as="sourcePoint" />
            <mxPoint x="80" as="targetPoint" />
          </mxGeometry>
        </mxCell>
        <mxCell id="uiAMYh9efbAVhKRE-S2l-26" value="&lt;font style=&quot;font-size: 9px&quot;&gt;Hosts&lt;/font&gt;" style="text;html=1;strokeColor=none;fillColor=none;align=center;verticalAlign=middle;whiteSpace=wrap;rounded=0;" vertex="1" parent="uiAMYh9efbAVhKRE-S2l-24">
          <mxGeometry x="47" y="1" width="40" height="10" as="geometry" />
        </mxCell>
        <mxCell id="uiAMYh9efbAVhKRE-S2l-27" value="" style="group" vertex="1" connectable="0" parent="1">
          <mxGeometry x="296.5" y="410" width="87" height="11" as="geometry" />
        </mxCell>
        <mxCell id="uiAMYh9efbAVhKRE-S2l-28" value="" style="shape=link;html=1;" edge="1" parent="uiAMYh9efbAVhKRE-S2l-27">
          <mxGeometry width="50" height="50" relative="1" as="geometry">
            <mxPoint as="sourcePoint" />
            <mxPoint x="80" as="targetPoint" />
          </mxGeometry>
        </mxCell>
        <mxCell id="uiAMYh9efbAVhKRE-S2l-29" value="&lt;font style=&quot;font-size: 9px&quot;&gt;Hosts&lt;/font&gt;" style="text;html=1;strokeColor=none;fillColor=none;align=center;verticalAlign=middle;whiteSpace=wrap;rounded=0;" vertex="1" parent="uiAMYh9efbAVhKRE-S2l-27">
          <mxGeometry x="47" y="1" width="40" height="10" as="geometry" />
        </mxCell>
        <mxCell id="uiAMYh9efbAVhKRE-S2l-53" value="1" style="endArrow=classic;startArrow=classic;html=1;fontSize=7;exitX=0.5;exitY=1;exitDx=0;exitDy=0;exitPerimeter=0;fontColor=#0000CC;fillColor=#dae8fc;strokeColor=#6c8ebf;" edge="1" parent="uiAMYh9efbAVhKRE-S2l-27" source="uiAMYh9efbAVhKRE-S2l-4">
          <mxGeometry width="50" height="50" relative="1" as="geometry">
            <mxPoint x="33.5" y="-29" as="sourcePoint" />
            <mxPoint x="3.5" y="-10" as="targetPoint" />
          </mxGeometry>
        </mxCell>
        <mxCell id="uiAMYh9efbAVhKRE-S2l-30" value="" style="group" vertex="1" connectable="0" parent="1">
          <mxGeometry x="416.5" y="410" width="87" height="11" as="geometry" />
        </mxCell>
        <mxCell id="uiAMYh9efbAVhKRE-S2l-31" value="" style="shape=link;html=1;" edge="1" parent="uiAMYh9efbAVhKRE-S2l-30">
          <mxGeometry width="50" height="50" relative="1" as="geometry">
            <mxPoint as="sourcePoint" />
            <mxPoint x="80" as="targetPoint" />
          </mxGeometry>
        </mxCell>
        <mxCell id="uiAMYh9efbAVhKRE-S2l-32" value="&lt;font style=&quot;font-size: 9px&quot;&gt;Hosts&lt;/font&gt;" style="text;html=1;strokeColor=none;fillColor=none;align=center;verticalAlign=middle;whiteSpace=wrap;rounded=0;" vertex="1" parent="uiAMYh9efbAVhKRE-S2l-30">
          <mxGeometry x="47" y="1" width="40" height="10" as="geometry" />
        </mxCell>
        <mxCell id="uiAMYh9efbAVhKRE-S2l-33" value="" style="group" vertex="1" connectable="0" parent="1">
          <mxGeometry x="536.5" y="410" width="87" height="11" as="geometry" />
        </mxCell>
        <mxCell id="uiAMYh9efbAVhKRE-S2l-34" value="" style="shape=link;html=1;" edge="1" parent="uiAMYh9efbAVhKRE-S2l-33">
          <mxGeometry width="50" height="50" relative="1" as="geometry">
            <mxPoint as="sourcePoint" />
            <mxPoint x="80" as="targetPoint" />
          </mxGeometry>
        </mxCell>
        <mxCell id="uiAMYh9efbAVhKRE-S2l-35" value="&lt;font style=&quot;font-size: 9px&quot;&gt;Hosts&lt;/font&gt;" style="text;html=1;strokeColor=none;fillColor=none;align=center;verticalAlign=middle;whiteSpace=wrap;rounded=0;" vertex="1" parent="uiAMYh9efbAVhKRE-S2l-33">
          <mxGeometry x="47" y="1" width="40" height="10" as="geometry" />
        </mxCell>
        <mxCell id="uiAMYh9efbAVhKRE-S2l-48" value="1" style="endArrow=classic;startArrow=classic;html=1;fontSize=7;exitX=0.5;exitY=1;exitDx=0;exitDy=0;exitPerimeter=0;fontColor=#0000CC;fillColor=#dae8fc;strokeColor=#6c8ebf;" edge="1" parent="1" source="uiAMYh9efbAVhKRE-S2l-3">
          <mxGeometry width="50" height="50" relative="1" as="geometry">
            <mxPoint x="170" y="480" as="sourcePoint" />
            <mxPoint x="190" y="400" as="targetPoint" />
          </mxGeometry>
        </mxCell>
        <mxCell id="uiAMYh9efbAVhKRE-S2l-49" value="2" style="endArrow=classic;startArrow=classic;html=1;entryX=0.5;entryY=1;entryDx=0;entryDy=0;entryPerimeter=0;fontSize=7;fontColor=#0000CC;fillColor=#dae8fc;strokeColor=#6c8ebf;" edge="1" parent="1" target="uiAMYh9efbAVhKRE-S2l-3">
          <mxGeometry width="50" height="50" relative="1" as="geometry">
            <mxPoint x="210" y="400" as="sourcePoint" />
            <mxPoint x="218.5" y="450" as="targetPoint" />
          </mxGeometry>
        </mxCell>
        <mxCell id="uiAMYh9efbAVhKRE-S2l-50" value="" style="endArrow=none;dashed=1;html=1;strokeColor=#6c8ebf;fillColor=#dae8fc;" edge="1" parent="1">
          <mxGeometry width="50" height="50" relative="1" as="geometry">
            <mxPoint x="220" y="381" as="sourcePoint" />
            <mxPoint x="230" y="381" as="targetPoint" />
          </mxGeometry>
        </mxCell>
        <mxCell id="uiAMYh9efbAVhKRE-S2l-51" value="32" style="endArrow=classic;startArrow=classic;html=1;fontSize=7;exitX=0.5;exitY=1;exitDx=0;exitDy=0;exitPerimeter=0;fontColor=#0000CC;fillColor=#dae8fc;strokeColor=#6c8ebf;" edge="1" parent="1" source="uiAMYh9efbAVhKRE-S2l-3">
          <mxGeometry width="50" height="50" relative="1" as="geometry">
            <mxPoint x="230" y="480" as="sourcePoint" />
            <mxPoint x="250" y="400" as="targetPoint" />
          </mxGeometry>
        </mxCell>
        <mxCell id="uiAMYh9efbAVhKRE-S2l-37" value="1" style="endArrow=classic;startArrow=classic;html=1;entryX=0.5;entryY=1;entryDx=0;entryDy=0;entryPerimeter=0;fontSize=7;fillColor=#dae8fc;strokeColor=#6c8ebf;fontColor=#0000FF;" edge="1" parent="1" target="uiAMYh9efbAVhKRE-S2l-2">
          <mxGeometry width="50" height="50" relative="1" as="geometry">
            <mxPoint x="70" y="400" as="sourcePoint" />
            <mxPoint x="370" y="410" as="targetPoint" />
          </mxGeometry>
        </mxCell>
        <mxCell id="uiAMYh9efbAVhKRE-S2l-38" value="2" style="endArrow=classic;startArrow=classic;html=1;entryX=0.5;entryY=1;entryDx=0;entryDy=0;entryPerimeter=0;fontSize=7;fillColor=#dae8fc;strokeColor=#6c8ebf;fontColor=#0000FF;" edge="1" parent="1" target="uiAMYh9efbAVhKRE-S2l-2">
          <mxGeometry width="50" height="50" relative="1" as="geometry">
            <mxPoint x="89" y="400" as="sourcePoint" />
            <mxPoint x="118.5" y="370" as="targetPoint" />
          </mxGeometry>
        </mxCell>
        <mxCell id="uiAMYh9efbAVhKRE-S2l-39" value="" style="endArrow=none;dashed=1;html=1;fontColor=#0000FF;fillColor=#dae8fc;strokeColor=#6c8ebf;" edge="1" parent="1">
          <mxGeometry width="50" height="50" relative="1" as="geometry">
            <mxPoint x="100" y="380" as="sourcePoint" />
            <mxPoint x="110" y="380" as="targetPoint" />
          </mxGeometry>
        </mxCell>
        <mxCell id="uiAMYh9efbAVhKRE-S2l-40" value="32" style="endArrow=classic;startArrow=classic;html=1;entryX=0.5;entryY=1;entryDx=0;entryDy=0;entryPerimeter=0;fontSize=7;fillColor=#dae8fc;strokeColor=#6c8ebf;fontColor=#0000FF;" edge="1" parent="1" target="uiAMYh9efbAVhKRE-S2l-2">
          <mxGeometry width="50" height="50" relative="1" as="geometry">
            <mxPoint x="130" y="400" as="sourcePoint" />
            <mxPoint x="370" y="410" as="targetPoint" />
          </mxGeometry>
        </mxCell>
        <mxCell id="uiAMYh9efbAVhKRE-S2l-54" value="2" style="endArrow=classic;startArrow=classic;html=1;entryX=0.5;entryY=1;entryDx=0;entryDy=0;entryPerimeter=0;fontSize=7;fontColor=#0000CC;fillColor=#dae8fc;strokeColor=#6c8ebf;" edge="1" parent="1" target="uiAMYh9efbAVhKRE-S2l-4">
          <mxGeometry width="50" height="50" relative="1" as="geometry">
            <mxPoint x="320" y="400" as="sourcePoint" />
            <mxPoint x="345" y="360" as="targetPoint" />
          </mxGeometry>
        </mxCell>
        <mxCell id="uiAMYh9efbAVhKRE-S2l-56" value="" style="endArrow=none;dashed=1;html=1;strokeColor=#6c8ebf;fillColor=#dae8fc;" edge="1" parent="1">
          <mxGeometry width="50" height="50" relative="1" as="geometry">
            <mxPoint x="338" y="381" as="sourcePoint" />
            <mxPoint x="348" y="381" as="targetPoint" />
          </mxGeometry>
        </mxCell>
        <mxCell id="uiAMYh9efbAVhKRE-S2l-57" value="32" style="endArrow=classic;startArrow=classic;html=1;fontSize=7;exitX=0.5;exitY=1;exitDx=0;exitDy=0;exitPerimeter=0;fontColor=#0000CC;fillColor=#dae8fc;strokeColor=#6c8ebf;" edge="1" parent="1">
          <mxGeometry width="50" height="50" relative="1" as="geometry">
            <mxPoint x="338" y="360" as="sourcePoint" />
            <mxPoint x="368" y="400" as="targetPoint" />
          </mxGeometry>
        </mxCell>
        <mxCell id="uiAMYh9efbAVhKRE-S2l-70" value="1" style="endArrow=classic;startArrow=classic;html=1;fontSize=7;exitX=0.5;exitY=1;exitDx=0;exitDy=0;exitPerimeter=0;fontColor=#0000CC;fillColor=#dae8fc;strokeColor=#6c8ebf;" edge="1" parent="1">
          <mxGeometry width="50" height="50" relative="1" as="geometry">
            <mxPoint x="460" y="360" as="sourcePoint" />
            <mxPoint x="430" y="400" as="targetPoint" />
          </mxGeometry>
        </mxCell>
        <mxCell id="uiAMYh9efbAVhKRE-S2l-71" value="2" style="endArrow=classic;startArrow=classic;html=1;entryX=0.5;entryY=1;entryDx=0;entryDy=0;entryPerimeter=0;fontSize=7;fontColor=#0000CC;fillColor=#dae8fc;strokeColor=#6c8ebf;" edge="1" parent="1">
          <mxGeometry width="50" height="50" relative="1" as="geometry">
            <mxPoint x="451" y="399" as="sourcePoint" />
            <mxPoint x="461" y="359" as="targetPoint" />
          </mxGeometry>
        </mxCell>
        <mxCell id="uiAMYh9efbAVhKRE-S2l-72" value="" style="endArrow=none;dashed=1;html=1;strokeColor=#6c8ebf;fillColor=#dae8fc;" edge="1" parent="1">
          <mxGeometry width="50" height="50" relative="1" as="geometry">
            <mxPoint x="462" y="380" as="sourcePoint" />
            <mxPoint x="472" y="380" as="targetPoint" />
          </mxGeometry>
        </mxCell>
        <mxCell id="uiAMYh9efbAVhKRE-S2l-73" value="32" style="endArrow=classic;startArrow=classic;html=1;fontSize=7;exitX=0.5;exitY=1;exitDx=0;exitDy=0;exitPerimeter=0;fontColor=#0000CC;fillColor=#dae8fc;strokeColor=#6c8ebf;" edge="1" parent="1">
          <mxGeometry width="50" height="50" relative="1" as="geometry">
            <mxPoint x="461" y="359" as="sourcePoint" />
            <mxPoint x="491" y="399" as="targetPoint" />
          </mxGeometry>
        </mxCell>
        <mxCell id="uiAMYh9efbAVhKRE-S2l-74" value="1" style="endArrow=classic;startArrow=classic;html=1;fontSize=7;exitX=0.5;exitY=1;exitDx=0;exitDy=0;exitPerimeter=0;fontColor=#0000CC;fillColor=#dae8fc;strokeColor=#6c8ebf;" edge="1" parent="1" source="uiAMYh9efbAVhKRE-S2l-6">
          <mxGeometry width="50" height="50" relative="1" as="geometry">
            <mxPoint x="579" y="359" as="sourcePoint" />
            <mxPoint x="549" y="399" as="targetPoint" />
          </mxGeometry>
        </mxCell>
        <mxCell id="uiAMYh9efbAVhKRE-S2l-75" value="2" style="endArrow=classic;startArrow=classic;html=1;entryX=0.5;entryY=1;entryDx=0;entryDy=0;entryPerimeter=0;fontSize=7;fontColor=#0000CC;fillColor=#dae8fc;strokeColor=#6c8ebf;" edge="1" parent="1" target="uiAMYh9efbAVhKRE-S2l-6">
          <mxGeometry width="50" height="50" relative="1" as="geometry">
            <mxPoint x="570" y="400" as="sourcePoint" />
            <mxPoint x="580" y="360" as="targetPoint" />
          </mxGeometry>
        </mxCell>
        <mxCell id="uiAMYh9efbAVhKRE-S2l-76" value="" style="endArrow=none;dashed=1;html=1;strokeColor=#6c8ebf;fillColor=#dae8fc;" edge="1" parent="1">
          <mxGeometry width="50" height="50" relative="1" as="geometry">
            <mxPoint x="580" y="380" as="sourcePoint" />
            <mxPoint x="590" y="380" as="targetPoint" />
          </mxGeometry>
        </mxCell>
        <mxCell id="uiAMYh9efbAVhKRE-S2l-77" value="32" style="endArrow=classic;startArrow=classic;html=1;fontSize=7;exitX=0.5;exitY=1;exitDx=0;exitDy=0;exitPerimeter=0;fontColor=#0000CC;fillColor=#dae8fc;strokeColor=#6c8ebf;" edge="1" parent="1">
          <mxGeometry width="50" height="50" relative="1" as="geometry">
            <mxPoint x="580" y="360" as="sourcePoint" />
            <mxPoint x="610" y="400" as="targetPoint" />
          </mxGeometry>
        </mxCell>
      </root>
    </mxGraphModel>
  </diagram>
</mxfile>
